<?xml version="1.0" encoding="UTF-8"?>
<svg id="_레이어_2" data-name="레이어 2" xmlns="http://www.w3.org/2000/svg" viewBox="0 0 460.07 449.53">
  <defs>
    <style>
      .cls-1 {
        fill: #c9b4ee;
      }

      .cls-2 {
        fill: #79e9c4;
      }

      .cls-3 {
        fill: #8bb6ec;
      }

      .cls-4 {
        fill: #fea686;
      }

      .cls-5 {
        fill: #f5df4e;
      }

      .cls-6 {
        fill: #8cb6ee;
      }

      .cls-7 {
        fill: #fefefc;
      }

      .cls-8 {
        fill: #ea6;
      }

      .cls-9 {
        fill: #d0844b;
      }

      .cls-10 {
        fill: #d25c78;
      }

      .cls-11 {
        fill: #cab4ee;
      }

      .cls-12 {
        fill: #a183e1;
      }

      .cls-13 {
        fill: #eea966;
      }

      .cls-14 {
        fill: #fee166;
      }

      .cls-15 {
        fill: #f6c4da;
      }
    </style>
  </defs>
  <g id="_레이어_1-2" data-name="레이어 1">
    <g>
      <path class="cls-8" d="m0,418.83c3.47-8.02,6.93-16.05,10.43-24.05.77-1.76,1.29-3.67,2.76-5.05,4.68,5.68,10.91,6.01,17.1,4.02,10.23-3.28,19.85-8.17,29.7-12.45,22.58-9.79,45.24-19.39,67.86-29.09,25.22-10.82,50.48-21.55,75.61-32.59,5.38-2.36,11.34-3.67,15.9-7.77,9.38,6.32,18.89,12.43,29.15,17.25,11.61,5.45,23.48,10.05,36.51,10.68-15.72,6.86-31.41,13.77-47.16,20.56-65.93,28.42-131.88,56.81-197.83,85.18-4.5,1.94-8.93,4-14.09,4.01-12.13.01-21.45-6.68-25.11-18.39-.17-.54-.55-1.02-.84-1.52,0-3.6,0-7.19,0-10.79Z"/>
      <path class="cls-5" d="m219.36,311.86c-4.55,4.1-10.52,5.4-15.9,7.77-25.13,11.04-50.38,21.77-75.61,32.59-22.62,9.7-45.28,19.3-67.86,29.09-9.85,4.27-19.47,9.16-29.7,12.45-6.19,1.99-12.43,1.66-17.1-4.02,4.8-13.38,10.98-26.19,16.6-39.22,25.18-58.35,50.51-116.63,75.82-174.93.88-2.04,2.03-3.96,3.06-5.93.3.5.78.97.87,1.5,1.67,10.28,5.46,19.85,10,29.13,11.89,24.26,28.26,45.36,46.6,64.98,16.17,17.3,33.84,32.94,53.23,46.59Zm-136.51,15.27c4.74.17,7.73-1.68,9.23-4.99,4.24-9.39,8.29-18.88,12.1-28.45,1.81-4.56-.51-9.29-4.78-11.17-4.45-1.96-9.83-.51-11.9,3.99-4.37,9.49-8.53,19.11-12.3,28.86-2.24,5.81,2.31,11.65,7.65,11.76Zm26.04-57.49c2.72.09,5.18-.86,6.64-3.05,2.81-4.21,5.08-8.8,5.75-13.87.55-4.17-2.17-7.87-6.24-9.22-4.19-1.39-7.65-.15-10.2,3.33-2.31,3.15-3.67,6.86-4.81,10.51-2.07,6.62,2.3,12.4,8.86,12.3Z"/>
      <path class="cls-5" d="m220.38,180.82c26.99,22.09,50.29,47.47,68.86,77.08-1.24-.49-2.47-1.04-3.74-1.46-6.86-2.26-14.05.33-17.96,6.43-3.85,6-3.11,13.82,1.79,19.03,4.72,5.03,12.23,6.19,18.53,2.97,5.68-2.9,7.66-8.04,8.62-13.84,6.82,12.26,12.07,25.05,11.74,39.37-.15,6.25-1.3,12.52-4.75,17.96-1.4,2.21-2.99,4.52-5.88,5.19.17-7.21-2.39-11.75-10.79-12.29-15.61-1.01-29.38-7.35-42.35-15.68,1.2,0,2.39.02,3.59,0,9.93-.23,14.29-7.18,13.31-15.75-.94-8.21-4.12-15.9-8.08-23.07-9.91-17.99-22.54-33.97-37.14-48.4-5.19-5.13-10.48-10.14-15.72-15.21,13.55-.83,19.9-7.93,19.97-22.31Z"/>
      <path class="cls-9" d="m244.45,305.57c12.97,8.32,26.74,14.66,42.35,15.68,8.4.54,10.96,5.08,10.79,12.29,0,0,0-.07,0-.07-.28.33-.56.65-.84.98-2.65,4.56-6.82,5.76-11.73,5.34-13.03-.62-24.9-5.22-36.51-10.68-10.26-4.82-19.77-10.93-29.15-17.25-19.39-13.65-37.06-29.29-53.23-46.59-18.34-19.62-34.71-40.72-46.6-64.98-4.55-9.28-8.33-18.85-10-29.13-.09-.53-.57-1-.87-1.5.11-3.69,1.24-6.97,3.88-9.64.25-.32.5-.64.75-.96,0,0-.02.04-.02.04,8.57-1.42,12.66.58,14.16,7.05.77,3.3,1.38,6.64,2.06,9.96,1.75,4.44,3.28,8.98,5.3,13.29,11.38,24.34,27.93,45.03,46.04,64.56,11.99,12.93,25.14,24.67,39.11,35.42,7.76,5.98,15.75,11.72,24.53,16.2Z"/>
      <path class="cls-15" d="m360.33,105.82c.03-.15,0-.34.09-.44,9.22-11.11,17.77-23.14,32.49-27.57,4.96-1.49,10.41-1.29,15.52.09,9.78,2.66,19.48,5.6,29.21,8.45,8.37,2.45,15.09,11.37,14.4,19.03-.89,9.84-8.69,17.79-18.21,18.55-3.05.24-5.86-.88-8.74-1.63-11.53-3-22.81-6.93-34.54-9.17-1.7-.98-3.58-1.35-5.48-1.76-8.26-1.78-16.65-3-24.74-5.55Z"/>
      <path class="cls-15" d="m393.72,170.76c-6.06,8.24-13.48,15.21-21.37,21.56-7.77,6.25-16.97,7.8-26.62,5.08-9.75-2.75-19.47-5.63-29.1-8.78-9.32-3.05-14.01-9.9-13.71-19.17.27-8.26,5.32-14.8,13.38-17.05,3.64-1.01,7.4-.98,11.06,0,11.93,3.22,23.84,6.53,35.76,9.79.85.23,1.75.28,2.63.41.61.78,1.52.76,2.38.98,8.57,2.26,17.47,3.35,25.6,7.18Z"/>
      <path class="cls-11" d="m220.38,180.82c-.07,14.38-6.42,21.48-19.97,22.31-8.17-1.33-14.07-5.55-17.08-13.44-.79-2.87-1.64-5.73-2.36-8.62-2.6-10.54-7.36-20.57-7.56-31.68,1.24-9.98,6.24-17.81,13.77-24.24,4.83-4.13,8.36-9.67,14.03-12.89.91.51.86,1.44,1.1,2.29,2.46,8.51,3.75,17.34,7.11,25.59,3.25,11.98,6.51,23.96,9.75,35.94.43,1.57.8,3.15,1.19,4.73Z"/>
      <path class="cls-1" d="m258.9,115.17c-1.39-9.18-4.87-17.8-7.03-26.78-.77-3.19-1.89-6.29-2.72-9.46-3.02-11.5,2.33-21.04,13.59-24.35,9.58-2.81,19.84,2.9,22.83,13.51,3.27,11.6,7.96,22.83,9.42,34.93.97,8.02-1.18,15.31-6.39,21.16-6.45,7.25-13.7,13.78-20.61,20.63-2.26-10.12-5.32-19.99-9.1-29.64Z"/>
      <path class="cls-12" d="m258.9,115.17c3.78,9.65,6.84,19.52,9.1,29.64-8.06,6.49-17.25,8.05-26.97,5.31-10.62-2.99-21.07-6.61-31.59-9.96-3.36-8.25-4.65-17.09-7.11-25.59-.25-.85-.19-1.78-1.1-2.29,7.61-7.1,16.69-8.04,26.23-5.69,10.55,2.6,20.98,5.7,31.46,8.58Z"/>
      <path class="cls-10" d="m393.72,170.76c-8.13-3.83-17.03-4.92-25.6-7.18-.86-.23-1.77-.2-2.38-.98-3.86-12.02-8.78-23.77-11.06-36.21-1.35-7.4-.05-14.76,5.65-20.56,8.09,2.55,16.48,3.77,24.74,5.55,1.9.41,3.78.79,5.48,1.76,2.67,9.64,5.31,19.28,8.02,28.92,2.53,9.01,2.23,17.72-2.61,25.99-.6,1.03-1.07,2.17-2.24,2.72Z"/>
      <path class="cls-15" d="m177.82,74.51c-2.16-.06-2.72-1.91-3.31-3.57-1.96-5.48-4.04-10.93-5.68-16.5-1.09-3.71-3.42-5.75-6.79-7.14-4.68-1.95-9.3-4.06-13.95-6.09-1.74-.76-3.21-1.87-3.24-3.9-.03-2.03,1.4-3.18,3.14-3.96,4.77-2.14,9.45-4.48,14.32-6.37,3.36-1.31,5.38-3.38,6.45-6.81,1.74-5.55,3.75-11.01,5.71-16.49.59-1.66,1.08-3.55,3.39-3.66,2.36-.12,2.99,1.79,3.6,3.41,2.2,5.86,4.33,11.76,6.36,17.69.88,2.56,2.23,4.22,4.92,5.29,5.27,2.09,10.33,4.69,15.48,7.08,1.7.79,3.1,1.69,3.02,3.95-.07,2.05-1.4,2.83-2.93,3.55-5.14,2.4-10.2,5.02-15.47,7.1-2.86,1.13-4.2,2.95-5.12,5.66-1.95,5.8-4.06,11.54-6.22,17.26-.61,1.62-1.2,3.51-3.69,3.52Z"/>
      <path class="cls-5" d="m173.41,149.4c.2,11.11,4.96,21.14,7.56,31.68.71,2.89,1.57,5.75,2.36,8.62-1.53-.19-2.76-1.01-3.99-1.86-5.88-4.07-12.04-7.75-18.66-10.35-9.69-3.81-19.55-8.68-29.87-1.4-.3.21-.87.03-1.32.02-.68-3.32-1.29-6.66-2.06-9.96-1.5-6.46-5.59-8.47-14.16-7.05,2.7-10.14,13.17-18.45,23.56-18.99,11.9-.61,22.66,3.31,33.27,7.93,1.1.48,2.21.92,3.31,1.37Z"/>
      <path class="cls-1" d="m435.81,247.07c-2.08.06-2.56-1.52-3.07-2.88-1.52-4.06-3.04-8.12-4.33-12.25-.74-2.37-2.1-3.71-4.41-4.58-3.5-1.3-6.87-2.93-10.29-4.45-1.41-.63-2.79-1.48-2.78-3.19,0-1.71,1.41-2.52,2.79-3.19.27-.13.53-.32.81-.38,10.41-2.25,15.58-9.28,17.7-19.21.39-1.82.67-4.23,3.05-4.49,2.61-.28,3.15,2.33,3.45,4,1.92,10.61,7.9,17.28,18.36,20.01,1.45.38,2.84,1.34,2.96,3.04.14,1.99-1.4,3.07-2.98,3.46-10.81,2.66-16.35,9.94-18.49,20.45-.3,1.47-.87,3.27-2.77,3.65Z"/>
      <path class="cls-3" d="m296.48,271.03c-.96,5.81-2.95,10.94-8.62,13.84-6.3,3.22-13.81,2.05-18.53-2.97-4.9-5.21-5.64-13.03-1.79-19.03,3.91-6.1,11.1-8.69,17.96-6.43,1.27.42,2.5.97,3.74,1.46,3.95,3.53,6.64,7.76,7.24,13.13Z"/>
      <path class="cls-4" d="m356.9,17.03c0,8.73-6.6,15.3-15.33,15.29-8.69,0-15.3-6.65-15.29-15.37.01-8.72,6.61-15.27,15.36-15.26,8.73.02,15.27,6.58,15.26,15.33Z"/>
      <path class="cls-2" d="m391.04,268.62c-.05,8.43-7.15,15.41-15.54,15.28-8.36-.12-15.17-7.23-15.07-15.75.09-8.41,7.36-15.6,15.54-15.37,8.4.24,15.13,7.31,15.07,15.83Z"/>
      <path class="cls-6" d="m415.2,21.38c.06-7.34,5.91-13.16,13.18-13.08,7.3.08,13.09,6.28,12.96,13.86-.12,6.96-6,12.73-13.04,12.78-7.39.05-13.16-5.93-13.11-13.56Z"/>
      <path class="cls-2" d="m333.02,74.55c-4.02-.07-6.87-3.14-6.79-7.31.07-3.98,3.36-7.16,7.2-6.97,3.74.18,7.23,3.85,7.05,7.4-.2,3.95-3.46,6.96-7.46,6.89Z"/>
      <path class="cls-14" d="m113.29,159.05c-.25.32-.5.64-.75.96.25-.32.5-.64.75-.96Z"/>
      <path class="cls-14" d="m296.75,334.44c.28-.33.56-.65.84-.98-.28.32-.56.65-.84.98Z"/>
      <path class="cls-7" d="m82.85,327.13c-5.34-.12-9.89-5.96-7.65-11.76,3.76-9.75,7.92-19.36,12.3-28.86,2.07-4.5,7.45-5.95,11.9-3.99,4.27,1.88,6.59,6.61,4.78,11.17-3.8,9.58-7.86,19.06-12.1,28.45-1.5,3.31-4.48,5.15-9.23,4.99Z"/>
      <path class="cls-7" d="m108.88,269.64c-6.56.1-10.93-5.67-8.86-12.3,1.14-3.65,2.5-7.36,4.81-10.51,2.55-3.48,6.01-4.72,10.2-3.33,4.07,1.35,6.79,5.05,6.24,9.22-.67,5.07-2.94,9.66-5.75,13.87-1.46,2.19-3.92,3.13-6.64,3.05Z"/>
      <path class="cls-13" d="m129.48,176.1c.45,0,1.02.18,1.32-.02,10.32-7.28,20.18-2.41,29.87,1.4,6.62,2.6,12.78,6.28,18.66,10.35,1.23.85,2.46,1.67,3.99,1.86,3.01,7.89,8.91,12.11,17.08,13.44,5.24,5.07,10.54,10.09,15.72,15.21,14.6,14.43,27.23,30.41,37.14,48.4,3.95,7.18,7.14,14.87,8.08,23.07.98,8.57-3.38,15.52-13.31,15.75-1.19.03-2.39,0-3.59,0-8.78-4.48-16.77-10.22-24.53-16.2-13.97-10.75-27.11-22.49-39.11-35.42-18.11-19.53-34.66-40.22-46.04-64.56-2.02-4.31-3.55-8.85-5.3-13.29Z"/>
    </g>
  </g>
</svg>