<?xml version="1.0" encoding="UTF-8"?>
<svg id="_레이어_2" data-name="레이어 2" xmlns="http://www.w3.org/2000/svg" viewBox="0 0 92.08 104.6">
  <defs>
    <style>
      .cls-1 {
        fill: #d25c78;
      }
    </style>
  </defs>
  <g id="_레이어_1-2" data-name="레이어 1">
    <g>
      <path class="cls-1" d="m19.85,104.6c-1.97-.48-3.8-1.21-5.29-2.67-1.99-1.96-2.66-4.42-2.88-7.1-.85-10.58-1.75-21.16-2.62-31.74-.71-8.65-1.41-17.3-2.13-25.94-.17-2.07-.33-4.14-.57-6.2-.04-.37-.38-.86-.72-1.01C2.02,28.28-.28,24.66.03,21c.36-4.25,3.05-7.5,7.09-8.46.89-.21,1.83-.26,2.74-.26,4.5-.03,9-.01,13.51-.01.37,0,.73,0,1.19,0,0-.97,0-1.85,0-2.73C24.61,3.98,28.55.04,34.13.02c7.95-.03,15.89-.03,23.84,0,5.58.02,9.51,3.96,9.57,9.52,0,.88,0,1.75,0,2.73.46,0,.83,0,1.19,0,4.6,0,9.21-.02,13.81,0,4.5.02,7.91,2.54,9.17,6.72,1.28,4.24-.91,9.01-5,10.78-.67.29-.99.6-1.05,1.37-.56,7.12-1.17,14.24-1.76,21.36-.59,7.02-1.18,14.04-1.76,21.06-.58,6.99-1.2,13.97-1.7,20.96-.25,3.42-1.16,6.47-4.2,8.4-1.2.76-2.66,1.13-4,1.68H19.85ZM12.55,30.72c.55,6.71,1.09,13.35,1.64,19.99.65,7.8,1.31,15.59,1.96,23.39.58,6.95,1.12,13.9,1.72,20.85.22,2.61,1.27,3.52,3.89,3.52,16.2,0,32.4,0,48.6,0,.31,0,.62.01.92-.01,1.49-.12,2.6-1.15,2.83-2.63.09-.57.13-1.15.18-1.73.44-5.29.87-10.58,1.31-15.87.59-7.09,1.18-14.17,1.77-21.26.51-6.17,1.03-12.34,1.55-18.51.21-2.57.42-5.14.63-7.75H12.55Zm33.5-12.32c-11.97,0-23.95,0-35.92,0-.41,0-.82-.02-1.23.03-2.11.24-3.37,2.43-2.46,4.32.68,1.41,1.9,1.8,3.38,1.79,24.15-.02,48.3-.01,72.45-.01.31,0,.62,0,.92-.02,1.57-.18,2.76-1.49,2.76-3.04,0-1.55-1.19-2.87-2.76-3.04-.41-.04-.82-.03-1.23-.03-11.97,0-23.95,0-35.92,0Zm15.35-6.16c0-.94,0-1.79,0-2.63-.02-2.25-1.22-3.45-3.48-3.46-2.83,0-5.66,0-8.48,0-5.11,0-10.22,0-15.33,0-1.79,0-3.13.95-3.32,2.53-.14,1.16-.03,2.35-.03,3.56h30.65Z"/>
      <path class="cls-1" d="m24.69,42.23c-.04-.78-.13-1.56-.12-2.34.02-1.71,1.27-3.02,2.91-3.1,1.67-.08,3.08,1.16,3.2,2.91.23,3.32.42,6.65.63,9.98.52,8.32,1.04,16.63,1.56,24.95.29,4.72.6,9.43.87,14.15.12,2.05-1.13,3.49-2.95,3.56-1.77.06-3.05-1.28-3.18-3.27-.72-11.61-1.46-23.22-2.18-34.82-.25-4.01-.48-8.01-.72-12.02,0,0,0,0-.01,0Z"/>
      <path class="cls-1" d="m67.51,40.58c-.65,10.39-1.31,20.77-1.96,31.16-.36,5.8-.72,11.61-1.07,17.41-.14,2.36-2.19,3.79-4.25,2.95-1.27-.52-1.97-1.69-1.88-3.3.2-3.63.44-7.26.67-10.9.38-6.14.77-12.29,1.15-18.43.41-6.58.81-13.17,1.24-19.75.11-1.75,1.51-3,3.18-2.93,1.68.07,2.92,1.41,2.94,3.18,0,.2,0,.41,0,.61,0,0-.02,0-.02,0Z"/>
      <path class="cls-1" d="m49.12,64.58c0,7.97,0,15.93,0,23.9,0,.37.02.75-.03,1.12-.18,1.57-1.51,2.75-3.06,2.74-1.55,0-2.86-1.2-3.03-2.77-.04-.37-.02-.75-.02-1.12,0-15.93,0-31.86,0-47.8,0-2.44,1.15-3.87,3.09-3.86,1.94.01,3.05,1.43,3.05,3.89,0,7.97,0,15.93,0,23.9Z"/>
    </g>
  </g>
</svg>