<?xml version="1.0" encoding="UTF-8"?>
<svg id="_레이어_2" data-name="레이어 2" xmlns="http://www.w3.org/2000/svg" viewBox="0 0 642.56 642.85">
  <defs>
    <style>
      .cls-1 {
        fill: #02569b;
      }

      .cls-2 {
        fill: #febbdb;
      }

      .cls-3 {
        fill: #f5df4e;
      }

      .cls-4 {
        fill: #019db1;
      }

      .cls-5 {
        fill: #d25c78;
      }
    </style>
  </defs>
  <g id="_레이어_1-2" data-name="레이어 1">
    <g>
      <polygon class="cls-3" points="85.63 426.03 96.97 449.02 122.34 452.7 103.98 470.59 108.31 495.86 85.63 483.93 62.94 495.86 67.27 470.59 48.91 452.7 74.28 449.02 85.63 426.03"/>
      <polygon class="cls-3" points="158.72 544.54 167.55 562.45 187.32 565.33 173.02 579.27 176.39 598.95 158.72 589.66 141.04 598.95 144.41 579.27 130.11 565.33 149.88 562.45 158.72 544.54"/>
      <polygon class="cls-3" points="478.11 57.28 487.16 75.63 507.41 78.57 492.76 92.85 496.22 113.02 478.11 103.5 460 113.02 463.45 92.85 448.8 78.57 469.05 75.63 478.11 57.28"/>
      <polygon class="cls-3" points="603.59 228.49 612.65 246.84 632.9 249.78 618.24 264.06 621.7 284.23 603.59 274.71 585.48 284.23 588.94 264.06 574.29 249.78 594.54 246.84 603.59 228.49"/>
      <polygon class="cls-3" points="478.24 450.13 487.29 468.48 507.54 471.42 492.89 485.7 496.35 505.87 478.24 496.35 460.13 505.87 463.59 485.7 448.93 471.42 469.18 468.48 478.24 450.13"/>
      <polygon class="cls-3" points="211.11 172.26 223.8 197.97 252.16 202.09 231.64 222.1 236.48 250.35 211.11 237.01 185.74 250.35 190.59 222.1 170.06 202.09 198.43 197.97 211.11 172.26"/>
      <path class="cls-1" d="m214.57,0c4.54,3.34,6.16,7.71,6.13,13.44-.2,37.2-.1,74.41-.11,111.61,0,2.5.2,5.02-.86,7.41-1.78,4.04-4.82,6.45-9.25,6.13-4.3-.31-7.53-2.62-8.51-7.06-.49-2.22-.62-4.55-.62-6.83-.04-36.79.03-73.57-.08-110.36-.02-5.71,1.12-10.66,5.77-14.34h7.53Z"/>
      <path class="cls-2" d="m642.56,546.02c-5.76,6.53-8.26,7.09-16.26,3.78-28.9-11.97-57.8-23.93-86.72-35.85-4.36-1.8-7.5-4.21-7.59-9.53-.08-4.44,2.14-6.89,5.68-8.88,2.77-1.55,5.31-.67,7.81.36,24.88,10.22,49.78,20.41,74.59,30.82,7.8,3.28,16.43,5.12,22.5,11.77v7.53Z"/>
      <path class="cls-2" d="m642.56,416.73c-4.9,8.2-14.08,9.23-21.71,12.52-24.67,10.64-49.58,20.73-74.39,31.03-3.84,1.6-7.48,2.22-11.13-.74-3.21-2.61-3.69-5.88-3.15-9.55.59-4.05,3.56-5.86,6.99-7.27,18.11-7.44,36.21-14.89,54.3-22.38,10.97-4.54,21.92-9.14,32.87-13.72,8.02-3.35,10.4-2.8,16.22,3.82v6.28Z"/>
      <path class="cls-1" d="m220.59,353.35c0,18.83-.03,37.65.03,56.48.01,3.93-.59,7.54-3.8,10.17-5.07,4.16-12.87,1.85-14.73-4.52-.69-2.35-.74-4.96-.74-7.44-.04-36.82-.03-73.63-.02-110.45,0-1.67-.05-3.36.17-5.01.8-5.94,4.55-9.3,10.05-8.94,5.85.38,8.64,4.12,8.92,9.47.37,7.09.12,14.22.12,21.33,0,12.97,0,25.94,0,38.91Z"/>
      <path class="cls-1" d="m69.21,220.7c-18.58,0-37.16,0-55.74,0-2.49,0-5.01.19-7.4-.84-4.11-1.76-6.25-4.88-6.06-9.29.2-4.46,2.66-7.46,7.01-8.47,2.41-.56,4.97-.63,7.46-.64,36.74-.04,73.48-.03,110.22-.02.63,0,1.25-.01,1.88,0,7.62.22,12.12,3.88,12.06,9.79-.06,5.66-4.9,9.42-12.44,9.44-19,.05-37.99.02-56.99.02Z"/>
      <path class="cls-1" d="m352.98,220.69c-18.82,0-37.65,0-56.47,0-2.51,0-5.04.1-7.39-1.02-4.03-1.93-6.01-5.09-5.55-9.58.43-4.16,2.65-7.03,6.76-8.04,2-.49,4.14-.59,6.21-.6,37.44-.03,74.88-.02,112.32-.02.63,0,1.26-.02,1.88.01,7.45.33,11.24,3.73,11.06,9.91-.17,5.74-4.13,9.25-11.1,9.29-19.24.1-38.49.04-57.73.04Z"/>
      <path class="cls-1" d="m162.63,269.11c-.35,3.04-1.74,5.54-3.88,7.67-27.35,27.34-54.67,54.72-82.08,82.01-5.3,5.27-10.68,5.56-14.87,1.35-4.24-4.26-3.82-9.44,1.5-14.77,27.17-27.23,54.41-54.39,81.56-81.64,3.6-3.61,7.55-5.3,12.4-3.21,3.63,1.56,4.99,4.84,5.37,8.59Z"/>
      <path class="cls-1" d="m268.93,162.69c-3.48-.39-6.54-1.62-8.26-4.89-1.67-3.18-1.65-6.5.3-9.54,1.11-1.73,2.64-3.23,4.1-4.7,26.3-26.33,52.61-52.64,78.93-78.95,1.18-1.18,2.31-2.46,3.66-3.42,4.3-3.08,8.61-3.14,12.43.76,3.57,3.64,3.68,7.82.96,11.98-1.13,1.73-2.68,3.2-4.15,4.68-26.15,26.18-52.33,52.33-78.48,78.51-2.7,2.7-5.4,5.28-9.48,5.57Z"/>
      <path class="cls-1" d="m68.17,59.03c3.45.11,5.8,1.71,7.94,3.85,27.48,27.5,55,54.97,82.46,82.5,4.94,4.96,5.25,10.22,1.19,14.35-4.07,4.14-9.45,3.9-14.34-.98-27.53-27.46-55-54.98-82.5-82.46-3.17-3.17-5.09-6.66-3.19-11.22,1.61-3.88,4.65-5.74,8.45-6.03Z"/>
      <path class="cls-1" d="m362.77,353.27c0,7.53-7.57,11.95-13.82,8.35-1.77-1.02-3.26-2.58-4.73-4.04-26.6-26.56-53.17-53.15-79.75-79.74-1.03-1.03-2.21-1.98-3.01-3.18-2.93-4.38-2.84-8.84.98-12.49,3.58-3.43,7.96-3.56,12.02-.66,2.18,1.56,3.96,3.7,5.88,5.62,25.85,25.84,51.69,51.68,77.54,77.52,2.54,2.53,5.12,5.02,4.91,8.63Z"/>
      <path class="cls-2" d="m451.63,532.18c7.66-.15,11.78,6.08,8.83,13.44-7.06,17.62-14.39,35.13-21.63,52.67-5.1,12.34-10.1,24.72-15.41,36.96-3.01,6.95-7.69,9.06-13.21,6.62-5.15-2.28-6.76-7.93-4.1-14.34,12.04-29.1,24.09-58.2,36.11-87.31,1.85-4.47,4.07-8.38,9.42-8.04Z"/>
      <path class="cls-2" d="m504.64,424.32c-7.44.1-11.69-5.93-8.95-12.87,6.13-15.5,12.57-30.88,18.94-46.29,5.81-14.06,11.76-28.06,17.47-42.16,1.48-3.65,3.43-6.87,6.89-8.57,3.22-1.58,6.83-.93,9.32,1.61,3.02,3.08,4.53,6.73,2.57,11.35-6.34,14.96-12.45,30.03-18.66,45.05-5.97,14.44-11.96,28.88-17.92,43.33-1.9,4.6-3.98,8.94-9.66,8.55Z"/>
      <path class="cls-2" d="m424.23,504.29c.2,4.59-2.14,7.39-6.23,9.09-15.97,6.63-31.92,13.31-47.89,19.95-14.04,5.83-28.05,11.77-42.18,17.38-6.48,2.58-11.39.58-13.49-4.73-2.03-5.12.63-10.07,6.88-12.69,29.4-12.32,58.8-24.66,88.22-36.93,8.16-3.4,14.79.25,14.7,7.93Z"/>
      <path class="cls-2" d="m494.37,541.1c1.17-4.31,2.9-7.84,7-8.69,4.48-.93,8.99-.41,11.15,4.57,4.54,10.52,8.94,21.1,13.35,31.68,8.17,19.62,16.33,39.24,24.39,58.91.91,2.23,2.17,4.48,1.49,7.19-1.07,4.27-3.49,7.27-7.92,7.75-4.94.53-8.47-2.04-10.34-6.49-9.26-22.1-18.41-44.24-27.62-66.37-2.96-7.12-6-14.21-8.92-21.34-1.02-2.48-1.81-5.06-2.57-7.22Z"/>
      <path class="cls-2" d="m452.03,424.32c-4.6.17-7.35-2.2-9.04-6.29-6.37-15.39-12.83-30.76-19.22-46.15-5.91-14.23-11.77-28.49-17.64-42.74-2.83-6.88-1.11-12.55,4.4-14.69,5.08-1.97,10.52,1.06,13.19,7.49,12.14,29.24,24.27,58.48,36.34,87.74,3.36,8.14-.35,14.76-8.03,14.63Z"/>
      <path class="cls-2" d="m323.33,405.36c5.57-.47,9.94,2.92,14.7,4.84,26.1,10.54,52.09,21.37,78.12,32.09,4.21,1.73,7.85,3.76,8.14,9.17.23,4.32-1.56,7.08-5.1,9.25-3.16,1.93-6.12.9-8.99-.28-22.75-9.38-45.46-18.87-68.19-28.29-6.74-2.8-13.53-5.49-20.27-8.28-3.39-1.4-6.32-3.59-7.66-7.02-2.28-5.83,2.33-11.38,9.25-11.47Z"/>
      <path class="cls-3" d="m275.89,496.36c-.2,5.67-3.96,9.3-11.2,8.84-6.76-.43-8.13,2.19-7.78,8.22.38,6.42-3.66,10.86-8.71,10.79-5.53-.09-9.8-4.49-9.31-10.99.48-6.43-1.65-8.33-8-8-6.76.35-10.98-3.82-11.03-9.32-.05-5.49,4.21-9.87,10.87-9.44,6.89.45,8.54-2.17,8.14-8.49-.38-6.07,3.82-10.33,9.16-10.54,5.02-.2,9.3,4.31,8.86,10.62-.45,6.49,1.51,8.73,8.23,8.41,7.41-.35,10.98,3.59,10.76,9.89Z"/>
      <path class="cls-3" d="m526.93,214.71c-.04,5.77-2.82,8.39-9.08,8.57q-9.43.28-9.77,9.4c-.23,6.14-3.59,10.04-8.8,10.22-4.46.16-8.99-4.6-9.44-9.99-.11-1.25-.18-2.53,0-3.76.68-4.84-1.58-6.44-6.11-5.89-1.65.2-3.36.15-5.01-.06-4.25-.54-6.84-3.25-7.62-7.21-.74-3.74.61-6.99,4.16-9.03,2.43-1.4,5-2.31,7.78-1.89,5.75.88,7.57-1.74,6.81-7.08-.3-2.11.19-4.15,1.13-6.08,1.96-4.02,5.33-6.25,9.6-5.45,4.36.82,7.56,3.56,7.5,8.66,0,.42.07.85,0,1.25-1.13,6.65,1.15,9.37,8.34,8.83,6.87-.52,10.57,3.46,10.52,9.5Z"/>
      <path class="cls-3" d="m592.83,83.02c5.32.01,8.78,3.66,9.19,9.7q.61,8.89,8.99,9.16c5.76.19,9.82,3.89,9.88,9.01.06,5.1-4,9.57-9.79,9.09-7.45-.62-9.72,1.89-9.3,9.27.35,5.97-4.15,9.9-9.13,9.79-5.29-.12-9.24-4.33-8.79-10.59.45-6.32-1.22-8.98-8.12-8.45-7.03.54-10.86-3.27-10.86-9.11,0-6.29,3.18-9.4,10.75-8.87,6.65.47,8.69-1.74,8.25-8.31-.51-7.52,2.64-10.71,8.93-10.69Z"/>
      <path class="cls-4" d="m175.49,103.51c-.76,3.75-1.9,7.24-6.04,8.75-3.95,1.44-7.34.92-10.15-2.41-4.98-5.91-6.12-13.62-9.53-20.29-2.74-5.36-4.56-11.19-6.77-16.82-1.98-5.03-.35-9.63,4.28-12.15,4.54-2.48,10.15-1.43,12.31,3.46,5.57,12.57,10.48,25.44,15.64,38.19.15.38.17.81.26,1.27Z"/>
      <path class="cls-4" d="m103.47,248.7c3.98.79,7.41,2.11,8.81,6.26,1.24,3.68.86,6.91-2.21,9.67-5.79,5.22-13.57,6.21-20.22,9.63-5.54,2.84-11.57,4.75-17.39,7.03-4.9,1.92-9.59.11-12.04-4.58-2.35-4.5-1.1-10.14,3.75-12.26,12.41-5.43,25.07-10.28,37.64-15.35.57-.23,1.2-.29,1.67-.4Z"/>
      <path class="cls-4" d="m258.78,311.33c4.43.55,7.51,3.67,9.37,8.23,4.33,10.62,8.64,21.24,12.92,31.87,2.23,5.55.23,10.29-5.29,12.73-4.39,1.94-9.86-.02-11.91-4.9-5.01-11.91-9.88-23.88-14.43-35.98-2.29-6.1,2.33-12.09,9.33-11.96Z"/>
      <path class="cls-4" d="m320.64,175.57c-3.97-.79-7.4-2.1-8.81-6.24-1.25-3.68-.96-6.99,2.21-9.66.96-.81,1.79-1.91,2.89-2.37,12.12-5.08,24.14-10.44,36.49-14.87,4.79-1.72,8.69,1.42,10.8,6.25,2.26,5.2-.33,9.26-4.3,11.06-12.33,5.59-25.04,10.35-37.6,15.42-.57.23-1.2.29-1.68.41Z"/>
      <path class="cls-4" d="m247.16,102c-.37-2.61,1.21-4.92,2.24-7.41,4-9.6,7.77-19.31,12.02-28.8,3.05-6.81,7.74-8.64,13.54-6.05,4.82,2.15,6.27,6.69,3.62,13.43-4.34,11.03-8.97,21.95-13.57,32.88-2.11,5.01-6.17,6.61-11.24,5.49-4.82-1.07-6.73-4.51-6.6-9.54Z"/>
      <path class="cls-4" d="m322.35,247.26c2.72-.36,5.02,1.3,7.5,2.33,9.8,4.06,19.68,7.97,29.33,12.35,5.99,2.72,7.61,7.32,5.41,12.81-1.92,4.78-6.44,6.57-12.65,4.17-11.45-4.42-22.76-9.19-34.07-13.96-5.05-2.13-6.39-6.4-5.18-11.38,1.17-4.79,4.76-6.54,9.65-6.31Z"/>
      <path class="cls-4" d="m176.94,322.3c.37,2.64-1.23,4.95-2.26,7.43-3.99,9.61-7.77,19.31-12.02,28.8-3.03,6.77-7.79,8.59-13.57,5.96-4.64-2.11-6.18-6.51-3.71-12.86,4.38-11.24,9.08-22.36,13.75-33.48,2.11-5.02,6.22-6.57,11.27-5.42,4.81,1.1,6.69,4.57,6.53,9.57Z"/>
      <path class="cls-4" d="m101.89,177.02c-2.62.36-4.94-1.23-7.42-2.26-9.42-3.9-18.9-7.66-28.24-11.72-6.97-3.03-9.02-7.39-6.8-13.31,1.91-5.11,6.87-6.81,13.74-4.11,11.03,4.34,21.95,8.97,32.87,13.59,5.02,2.12,6.57,6.22,5.42,11.28-1.09,4.82-4.56,6.69-9.57,6.54Z"/>
      <path class="cls-5" d="m486.34,364.56c0,4.8.2,9.61-.05,14.39-.31,5.97-4.03,9.85-9.14,10.03-5.3.19-9.62-3.83-9.81-9.99-.32-10.21-.36-20.45-.12-30.66.14-5.96,4.07-9.53,9.45-9.55,5.47-.02,9.06,3.37,9.4,9.51.3,5.41.06,10.84.06,16.27h.21Z"/>
      <path class="cls-5" d="m592.82,467.23c5.01,0,10.02-.21,15.02.05,6.3.33,9.96,4.21,9.79,9.87-.17,5.42-3.63,8.85-9.88,9.04-9.8.3-19.61.38-29.41.26-6.69-.08-10.94-4.06-10.91-9.57.04-5.54,4.22-9.24,11-9.47,4.79-.16,9.59-.03,14.39-.03v-.14Z"/>
      <path class="cls-5" d="m363.79,489.33c-5.01,0-10.02.16-15.02-.04-6.29-.25-10.12-4.05-10.08-9.62.05-5.46,3.4-9.01,9.64-9.22,10.21-.34,20.44-.43,30.65-.24,5.92.11,9.8,4.08,9.91,9.2.11,5.32-3.98,9.45-10.09,9.74-4.99.24-10.01.05-15.02.05,0,.05,0,.09,0,.14Z"/>
      <path class="cls-5" d="m489.21,592.57c0,4.8.11,9.6-.03,14.39-.19,6.85-3.74,10.76-9.55,10.78-5.7.02-9.18-3.47-9.37-10.16-.29-9.8-.34-19.61-.21-29.41.08-6.39,3.82-10.46,9.15-10.63,5.56-.18,9.56,3.99,9.85,10.64.21,4.79.04,9.59.04,14.39h.12Z"/>
      <path class="cls-5" d="m547.1,416.8c-3.94.05-6.63-1.79-8.36-4.9-1.76-3.16-1.98-6.8.48-9.42,8-8.5,16.12-16.92,24.65-24.89,3.65-3.41,8.28-2.61,11.87.9,3.61,3.54,4.36,8.26,1.07,11.88-7.86,8.63-16.31,16.71-24.63,24.91-1.34,1.32-3.33,1.68-5.07,1.53Z"/>
      <path class="cls-5" d="m580.9,568.51c-.39,4.2-1.77,7.13-4.95,8.93-3.41,1.93-7.19,2.08-9.97-.53-8.36-7.85-16.61-15.85-24.43-24.24-3.34-3.59-2.88-8.25.6-11.92,3.44-3.63,8.12-4.69,11.81-1.34,8.65,7.83,16.78,16.24,24.95,24.58,1.2,1.23,1.5,3.35,1.99,4.52Z"/>
      <path class="cls-5" d="m408.87,539.72c4.24-.08,6.93,1.75,8.68,4.85,1.93,3.4,1.92,7.15-.74,9.95-7.9,8.32-15.89,16.57-24.28,24.39-3.67,3.42-8.27,2.66-11.88-.81-3.64-3.5-4.47-8.21-1.17-11.85,7.85-8.64,16.29-16.74,24.62-24.94,1.31-1.29,3.27-1.85,4.76-1.58Z"/>
      <path class="cls-5" d="m407.59,418.93c-3.01-.14-5.52-1.45-7.68-3.6-6.94-6.93-13.99-13.76-20.84-20.78-4.56-4.67-4.7-9.86-.75-13.87,3.87-3.92,9.34-3.93,13.92.43,7.25,6.91,14.29,14.04,21.37,21.13,3.08,3.08,4.06,6.8,2.36,10.9-1.5,3.62-4.54,5.28-8.38,5.78Z"/>
    </g>
  </g>
</svg>