<?xml version="1.0" encoding="UTF-8"?>
<svg id="_레이어_2" data-name="레이어 2" xmlns="http://www.w3.org/2000/svg" viewBox="0 0 100 100">
  <defs>
    <style>
      .cls-1 {
        fill: #723f1c;
      }
    </style>
  </defs>
  <g id="_레이어_1-2" data-name="레이어 1">
    <g>
      <path class="cls-1" d="M0,53.18c0-2.08,0-4.16,0-6.24,.12-.93,.24-1.86,.36-2.79C2.03,30.89,8,19.94,18.3,11.48,34.5-1.84,56.82-3.8,74.9,6.82c16.13,9.47,24.51,23.89,25.07,42.6,.31,10.22-2.54,19.68-8.27,28.16-7.95,11.79-18.97,19.04-32.99,21.65-1.85,.34-3.72,.52-5.59,.77h-6.25c-.25-.06-.5-.14-.75-.16-9.96-.79-18.93-4.2-26.78-10.37C9.25,81.54,3.01,71.23,.75,58.57c-.32-1.78-.5-3.59-.75-5.39ZM49.4,24.91c-1.04,.09-2.71,.15-4.34,.39-6.82,.98-12.89,3.56-17.79,8.52-5.96,6.04-7.55,14.3-4.14,21.52,2.3,4.86,6.06,8.3,10.73,10.83,.64,.35,.78,.65,.58,1.36-.81,2.91-1.57,5.83-2.3,8.76-.1,.41,.09,.89,.14,1.34,.44-.12,.95-.12,1.29-.36,3.4-2.34,6.77-4.74,10.17-7.07,.38-.26,.97-.43,1.42-.37,3.78,.51,7.54,.43,11.27-.27,6.3-1.17,11.91-3.73,16.4-8.39,4.04-4.2,6.21-9.17,5.73-15.09-.48-5.86-3.38-10.44-7.82-14.09-6.01-4.95-13.07-6.92-21.36-7.07Z"/>
      <path class="cls-1" d="M63.34,46.08c1.35-1.22,2.77-2.5,4.18-3.78,.26-.24,.49-.53,.75-.77,.66-.61,1.47-.64,1.99-.06,.57,.65,.51,1.32-.07,1.91-.98,.99-2,1.95-3.01,2.92-.3,.29-.63,.56-.98,.88,1.43,1.84,2.82,3.59,4.18,5.37,.65,.85,.52,1.86-.3,2.26-.79,.39-1.44,.15-1.95-.55-1.08-1.47-2.17-2.92-3.26-4.38-.17-.23-.36-.44-.54-.67-.77,.38-1.04,.94-.99,1.75,.06,.87,.03,1.75,0,2.63-.03,.94-.6,1.53-1.42,1.53-.81,0-1.4-.59-1.41-1.54-.02-3.74-.02-7.47,0-11.21,0-.95,.6-1.51,1.44-1.49,.83,.02,1.37,.59,1.39,1.55,.02,1.29,0,2.59,0,3.64Z"/>
      <path class="cls-1" d="M46.81,52.2c-1.78,0-3.47-.02-5.16,.02-.25,0-.59,.29-.73,.53-.22,.39-.29,.86-.46,1.28-.33,.83-1.05,1.19-1.78,.88-.8-.34-.99-.99-.76-1.77,.14-.5,.36-.97,.54-1.46,1.11-2.98,2.24-5.95,3.33-8.94,.38-1.04,.96-1.78,2.13-1.84,1.01-.05,1.72,.57,2.2,1.86,1.23,3.28,2.46,6.56,3.69,9.84,.1,.27,.22,.55,.26,.83,.12,.74-.17,1.28-.9,1.52-.73,.25-1.31-.05-1.62-.7-.3-.64-.49-1.34-.74-2.07Zm-2.58-8.3c-.69,2.08-1.28,3.88-1.91,5.77h3.81c-.62-1.88-1.22-3.69-1.91-5.77Z"/>
      <path class="cls-1" d="M35.51,43.64c0,3.13,0,6.11,0,9.09,0,.32,.02,.65-.02,.97-.1,.82-.56,1.35-1.41,1.31-.83-.04-1.29-.55-1.3-1.41,0-1.53,0-3.05,0-4.58,0-1.75,0-3.5,0-5.4-.9,0-1.73,.01-2.56,0-.99-.02-1.58-.51-1.59-1.31-.02-.81,.57-1.38,1.54-1.39,2.63-.02,5.27-.02,7.9,0,.97,0,1.58,.57,1.58,1.36,0,.8-.6,1.33-1.57,1.35-.81,.01-1.61,0-2.57,0Z"/>
      <path class="cls-1" d="M54.16,52.21c1.28,0,2.42,0,3.55,0,1.06,.01,1.67,.51,1.68,1.35,0,.84-.6,1.36-1.65,1.37-1.46,.01-2.93,.01-4.39,0-1.26-.01-1.9-.59-1.9-1.83-.03-3.54-.02-7.08,0-10.61,0-.95,.61-1.57,1.4-1.55,.78,.02,1.3,.64,1.31,1.62,.01,2.82,0,5.65,0,8.47,0,.35,0,.7,0,1.18Z"/>
    </g>
  </g>
</svg>