<?xml version="1.0" encoding="UTF-8"?>
<svg id="_레이어_2" data-name="레이어 2" xmlns="http://www.w3.org/2000/svg" viewBox="0 0 76.74 84.36">
  <defs>
    <style>
      .cls-1 {
        fill: #949398;
      }
    </style>
  </defs>
  <g id="_레이어_1-2" data-name="레이어 1">
    <path class="cls-1" d="m49.07,24.35c-3.46,2.31-6.87,4.58-10.28,6.85-2.76,1.84-5.52,3.7-8.3,5.52-.48.32-.58.58-.4,1.16.91,2.88.91,5.78-.02,8.65-.16.48-.09.74.34,1.02,6.14,4.07,12.26,8.16,18.39,12.24.07.05.16.08.29.15.36-.42.7-.87,1.09-1.27,4.37-4.49,9.63-6.12,15.65-4.31,6,1.8,9.68,5.99,10.71,12.18,1.42,8.57-4.32,16.3-12.87,17.64-9.51,1.49-18.17-6.47-17.48-16.08.04-.58-.08-.91-.58-1.24-6.47-4.28-12.92-8.58-19.36-12.89-.47-.32-.76-.32-1.23.05-4.74,3.69-10,4.56-15.54,2.27C4.01,54.03.86,49.78.12,43.88c-.78-6.21,2.39-12.2,7.93-15.21,5.41-2.94,12.17-2.31,16.93,1.61.5.41.8.39,1.3.05,6.42-4.3,12.84-8.58,19.28-12.85.47-.31.67-.6.62-1.22-.6-7.97,5.24-15.15,13.09-16.14,8.19-1.04,15.63,4.32,17.11,12.3,1.27,6.85-2.19,13.68-8.4,16.61-6.38,3.01-13.79,1.39-18.34-3.99-.17-.21-.34-.41-.58-.71Z"/>
  </g>
</svg>