<?xml version="1.0" encoding="UTF-8"?>
<svg id="_레이어_2" data-name="레이어 2" xmlns="http://www.w3.org/2000/svg" viewBox="0 0 150 150">
  <defs>
    <style>
      .cls-1 {
        fill: #fdc622;
      }

      .cls-2 {
        fill: #fefcfd;
      }

      .cls-3 {
        fill: #fd5d5e;
      }

      .cls-4 {
        fill: #fd784f;
      }

      .cls-5 {
        fill: #bc0eb6;
      }

      .cls-6 {
        fill: #fd9c3b;
      }

      .cls-7 {
        fill: #e71b93;
      }

      .cls-8 {
        fill: #c610ae;
      }

      .cls-9 {
        fill: #fa2183;
      }

      .cls-10 {
        fill: #9a03d3;
      }

      .cls-11 {
        fill: #af0ac2;
      }

      .cls-12 {
        fill: #d014a6;
      }

      .cls-13 {
        fill: #fd426e;
      }

      .cls-14 {
        fill: #f21e8a;
      }

      .cls-15 {
        fill: #fdb62b;
      }
    </style>
  </defs>
  <g id="_레이어_1-2" data-name="레이어 1">
    <g>
      <path class="cls-10" d="m78.68.34c2.4-.42,4.76.07,7.11.4,2.45.34,4.9.77,7.28,1.43,27.96,7.84,46.25,25.61,54.37,53.56,1.46,5.03,2.37,10.25,2.43,15.55-.87.1-1.28-.57-1.77-1.07C125.29,47.41,102.49,24.6,79.7,1.79c-.42-.42-.99-.75-1.02-1.46Z"/>
      <path class="cls-11" d="m78.68.34c.03.7.6,1.04,1.02,1.46,22.79,22.81,45.59,45.62,68.4,68.42.5.5.91,1.17,1.77,1.07.31,5.4.13,10.77-1.03,16.08-.09.42-.12.85-.18,1.28-.83-.05-1.2-.74-1.69-1.24-9.52-9.5-19.03-19.02-28.55-28.53-.49-.49-.87-1.18-1.69-1.25-.42-2.44-.61-4.93-1.54-7.26-4.12-10.37-11.83-15.94-22.83-17.12-.06-.82-.76-1.2-1.25-1.7-9.18-9.2-18.37-18.39-27.57-27.59-.78-.78-1.58-1.56-1.85-2.69,4.69-.93,9.39-1.69,14.2-1.02.92.13,1.87.06,2.8.08Z"/>
      <path class="cls-1" d="m67.37,149.54C32.31,146.25,3.74,117.77.46,82.61c.79-.06,1.34.31,1.89.85,21.38,21.41,42.77,42.8,64.17,64.19.54.54.92,1.1.85,1.89Z"/>
      <path class="cls-6" d="m91.68,148c-4.25,1.24-8.62,1.63-13.01,1.85.12-.81-.3-1.34-.84-1.88C52.56,122.7,27.29,97.42,2.02,72.14c-.54-.54-1.07-.96-1.88-.83.23-4.39.61-8.76,1.86-13.01.84.03,1.22.72,1.71,1.22,9.3,9.29,18.59,18.59,27.9,27.88.49.49.87,1.19,1.69,1.25.02.78.05,1.55.06,2.33.09,10.86,6.82,20.36,17.03,24.12,3.66,1.35,7.46,1.59,11.29,1.6.06.83.75,1.2,1.25,1.7,9.21,9.24,18.44,18.46,27.66,27.69.54.54,1.22,1.01,1.1,1.93Z"/>
      <path class="cls-15" d="m.14,71.3c.8-.12,1.34.3,1.88.83,25.26,25.29,50.54,50.57,75.82,75.84.54.54.96,1.07.84,1.88-3.78.26-7.55.18-11.31-.32.07-.79-.31-1.34-.85-1.89C45.12,126.27,23.73,104.87,2.35,83.46c-.54-.54-1.1-.92-1.89-.85-.48-3.76-.58-7.53-.32-11.31Z"/>
      <path class="cls-3" d="m114.42,138.69c-4,2.6-8.2,4.77-12.73,6.3-.04-.83-.73-1.21-1.22-1.7-8.21-8.23-16.44-16.45-24.66-24.68-.53-.53-1.26-.98-1.12-1.91,5.88,0,11.77-.01,17.65-.02.01.7.57,1.04.99,1.46,6.49,6.5,12.98,12.99,19.48,19.48.46.46.85,1.05,1.61,1.07Z"/>
      <path class="cls-12" d="m34.71,11.81c3.93-2.7,8.15-4.86,12.63-6.48-.13.93.59,1.38,1.13,1.91,8.02,8.03,16.05,16.06,24.07,24.09.53.53,1.26.97,1.14,1.91-5.88.05-11.76.09-17.64.14,0-.77-.6-1.16-1.06-1.62-6.27-6.28-12.55-12.56-18.83-18.84-.43-.43-.82-.91-1.43-1.11Z"/>
      <path class="cls-12" d="m144.63,102.64c-1.54,4.24-3.6,8.22-6.05,12-.75-.07-1.1-.71-1.55-1.16-6.23-6.21-12.44-12.44-18.67-18.65-.49-.49-.87-1.18-1.71-1.19.03-5.78.06-11.56.09-17.34.93-.12,1.37.6,1.91,1.14,8.03,8.02,16.05,16.05,24.08,24.08.53.53.98,1.25,1.91,1.13Z"/>
      <path class="cls-4" d="m33.3,88.64c-.83-.06-1.2-.76-1.69-1.25-9.3-9.29-18.59-18.59-27.9-27.88-.49-.49-.87-1.19-1.71-1.22.64-3.7,1.75-7.27,3.29-10.69.5.43,1.03.84,1.49,1.31,8.2,8.19,16.4,16.4,24.6,24.59.53.53.98,1.26,1.91,1.13,0,4.67,0,9.34,0,14.01Z"/>
      <path class="cls-4" d="m74.68,116.69c-.13.93.59,1.38,1.12,1.91,8.22,8.23,16.44,16.45,24.66,24.68.49.49,1.18.87,1.22,1.7-3.21,1.41-6.55,2.41-10,3.02.13-.92-.55-1.39-1.1-1.93-9.22-9.23-18.45-18.45-27.66-27.69-.49-.49-1.19-.87-1.25-1.7,4.33,0,8.67,0,13,0Z"/>
      <path class="cls-13" d="m8.97,39.61c1.81-3.72,4.04-7.17,6.69-10.34,0,.7.55,1.06.97,1.48,5.74,5.75,11.48,11.49,17.23,17.23.42.42.76.98,1.46.99-.95,3.05-2.07,6.05-1.97,9.33.05,1.66-.03,3.33-.06,5-.77-.04-1.12-.67-1.57-1.13-7.09-7.08-14.17-14.17-21.26-21.25-.47-.47-.99-.87-1.49-1.31Z"/>
      <path class="cls-7" d="m116.64,93.64c.84,0,1.22.7,1.71,1.19,6.23,6.21,12.44,12.44,18.67,18.65.46.46.8,1.09,1.55,1.16-1.9,3.22-4.08,6.24-6.62,8.99-.77-.02-1.12-.67-1.57-1.12-5.38-5.36-10.74-10.74-16.12-16.1-.54-.54-1-1.23-1.93-1.1,2.25-3.59,3.63-7.5,4.29-11.67Z"/>
      <path class="cls-7" d="m34.71,11.81c.61.19,1,.68,1.43,1.11,6.28,6.28,12.56,12.56,18.83,18.84.46.46,1.06.85,1.06,1.62-3.89.63-7.54,1.95-10.93,3.95-2.79-2.29-5.18-5.01-7.74-7.54-3.82-3.79-7.57-7.65-11.35-11.49,2.65-2.49,5.55-4.65,8.69-6.49Z"/>
      <path class="cls-3" d="m8.97,39.61c.5.43,1.02.84,1.49,1.31,7.09,7.08,14.17,14.17,21.26,21.25.46.45.81,1.09,1.57,1.13,0,3.78,0,7.56,0,11.34-.94.13-1.38-.6-1.91-1.13-8.2-8.2-16.4-16.4-24.6-24.59-.47-.47-.99-.87-1.49-1.31.9-2.81,2.15-5.47,3.68-7.99Z"/>
      <path class="cls-8" d="m73.68,33.23c.12-.93-.6-1.37-1.14-1.91-8.02-8.03-16.05-16.06-24.07-24.09-.53-.53-1.25-.98-1.13-1.91,2.36-1.07,4.78-1.95,7.33-2.45,0,.85.68,1.23,1.18,1.73,8.89,8.91,17.8,17.81,26.69,26.72.53.53,1.26.98,1.14,1.91-3.33,0-6.67,0-10,0Z"/>
      <path class="cls-8" d="m144.63,102.64c-.93.13-1.38-.6-1.91-1.13-8.03-8.02-16.05-16.05-24.08-24.08-.53-.53-.97-1.26-1.91-1.14,0-3.33,0-6.67,0-10,.76.05,1.11.68,1.57,1.14,8.82,8.81,17.63,17.62,26.44,26.44.67.67,1.31,1.37,2.34,1.43-.51,2.55-1.39,4.97-2.46,7.33Z"/>
      <path class="cls-5" d="m147.09,95.31c-1.04-.06-1.67-.77-2.34-1.43-8.81-8.82-17.62-17.63-26.44-26.44-.46-.46-.81-1.09-1.57-1.14,0-2.89-.01-5.78-.02-8.67.82.06,1.2.75,1.69,1.25,9.52,9.5,19.03,19.02,28.55,28.53.49.49.87,1.19,1.69,1.24-.25,2.29-.77,4.51-1.56,6.68Z"/>
      <path class="cls-5" d="m83.68,33.23c.12-.93-.61-1.37-1.14-1.91-8.9-8.91-17.8-17.81-26.69-26.72-.49-.49-1.18-.88-1.18-1.73,2.27-.84,4.6-1.37,7.01-1.6.27,1.13,1.07,1.91,1.85,2.69,9.19,9.19,18.38,18.38,27.57,27.59.49.5,1.19.87,1.25,1.7-2.89,0-5.78,0-8.67-.01Z"/>
      <path class="cls-9" d="m35.33,48.96c-.7,0-1.05-.57-1.46-.99-5.75-5.74-11.49-11.49-17.23-17.23-.42-.42-.96-.78-.97-1.48,1.67-2.41,3.59-4.61,5.74-6.62,6.08,6.04,12.16,12.07,18.22,18.12.21.21.27.58.39.88-1.83,2.27-3.48,4.65-4.69,7.31Z"/>
      <path class="cls-9" d="m127.33,128.6c-1.91,2.01-3.95,3.86-6.24,5.42-.62-.02-.99-.44-1.38-.84-6.17-6.2-12.34-12.4-18.51-18.6,2.68-1.35,5.18-2.99,7.47-4.95.18.12.39.22.54.38,5.83,5.82,11.65,11.65,17.48,17.48.31.31.66.6.64,1.11Z"/>
      <path class="cls-13" d="m101.2,114.59c6.17,6.2,12.34,12.4,18.51,18.6.39.39.76.82,1.38.84-2.01,1.85-4.3,3.32-6.67,4.66-.76-.02-1.15-.61-1.61-1.07-6.5-6.49-12.99-12.98-19.48-19.48-.42-.42-.98-.76-.99-1.46,3.04-.31,5.99-1.03,8.86-2.08Z"/>
      <path class="cls-14" d="m40.02,41.65c-.13-.3-.18-.67-.39-.88-6.06-6.05-12.14-12.09-18.22-18.12,1.36-1.63,2.94-3.05,4.62-4.35,3.78,3.83,7.52,7.7,11.35,11.49,2.56,2.54,4.94,5.25,7.74,7.54-1.69,1.44-3.39,2.88-5.08,4.32Z"/>
      <path class="cls-14" d="m127.33,128.6c.02-.5-.33-.8-.64-1.11-5.83-5.83-11.65-11.65-17.48-17.48-.15-.15-.36-.25-.54-.38,1.23-1.44,2.45-2.89,3.68-4.33.93-.14,1.39.56,1.93,1.1,5.37,5.37,10.74,10.74,16.12,16.1.46.45.8,1.1,1.57,1.12-1.39,1.8-2.9,3.48-4.63,4.97Z"/>
      <path class="cls-2" d="m112.35,105.31c-1.23,1.44-2.45,2.89-3.68,4.33-2.28,1.96-4.78,3.59-7.47,4.95-2.87,1.05-5.82,1.77-8.86,2.08-5.88,0-11.77.01-17.65.02-4.33,0-8.67,0-13,0-3.84-.01-7.63-.26-11.29-1.6-10.21-3.76-16.94-13.25-17.03-24.12,0-.78-.04-1.55-.06-2.33,0-4.67,0-9.34,0-14.01,0-3.78,0-7.56,0-11.34.02-1.67.11-3.33.06-5-.1-3.28,1.03-6.28,1.97-9.33,1.21-2.66,2.86-5.05,4.69-7.31,1.69-1.44,3.39-2.88,5.08-4.32,3.4-2,7.04-3.32,10.93-3.95,5.88-.05,11.76-.09,17.64-.14,3.33,0,6.67,0,10,0,2.89,0,5.78,0,8.67.01,11,1.18,18.71,6.75,22.83,17.12.93,2.33,1.12,4.82,1.54,7.26,0,2.89.01,5.78.02,8.67,0,3.33,0,6.67,0,10-.03,5.78-.06,11.56-.09,17.34-.66,4.17-2.04,8.08-4.29,11.67Zm-20.33-62.62c-2.33-.01-4.67-.02-7-.03-4.34,0-8.67,0-13.01,0-4.75,0-9.51-.07-14.26.01-1.64.03-3.28.37-4.77,1.2-2.37.81-4.35,2.16-5.93,4.1-2.87,2.97-4.32,6.51-4.33,10.65,0,3.89,0,7.78-.01,11.68,0,5.11,0,10.22,0,15.33-.02,1.88-.11,3.77-.04,5.65.27,6.63,3.44,11.41,9.3,14.45,3.94,2.04,8.18,1.63,12.38,1.55,4.78,0,9.55,0,14.33,0l13.34-.02c3.86-.2,7.21-1.59,9.98-4.32,1.75-1.4,2.98-3.19,3.82-5.25.28-.66.62-1.3.83-1.98,1.13-3.75.66-7.59.66-11.41,0-6.45,0-12.89,0-19.34,0-2.33-.02-4.67-.03-7-.56-8.31-6.96-14.72-15.26-15.27Z"/>
      <path class="cls-12" d="m72.01,42.66c4.34,0,8.67,0,13.01,0,.07.21.07.48.21.62,2.83,2.8,5.48,5.79,8.54,8.37,0,3.16,1.28,4.36,4.59,4.33,0,.56.4.88.75,1.22,2.33,2.33,4.66,4.66,6.99,6.99.35.35.65.76,1.22.76,0,6.45,0,12.89,0,19.34-.7-.02-1.04-.59-1.46-1.01-2.47-2.45-4.93-4.92-7.39-7.39-.59-.6-1.19-1.16-2.07-1.27-.63-9.12-5.05-15.63-13.37-19.45.1-.79-.48-1.19-.94-1.66-3.02-3.02-6.04-6.04-9.05-9.06-.5-.5-1.12-.95-1.01-1.8Z"/>
      <path class="cls-3" d="m42.71,85.63c0-5.11,0-10.22,0-15.33.85-.12,1.3.5,1.81,1,2.79,2.79,5.58,5.58,8.37,8.37.42.42.77.98,1.48.97,2.32,6.96,6.78,11.88,13.69,14.51-.12.8.49,1.19.95,1.64,2.89,2.9,5.79,5.8,8.68,8.69.5.5,1.12.95,1,1.8-4.78,0-9.55,0-14.33,0,.1-.77-.41-1.21-.89-1.69-6.36-6.36-12.72-12.71-19.07-19.08-.47-.48-.92-.99-1.69-.89Z"/>
      <path class="cls-7" d="m72.01,42.66c-.12.85.5,1.3,1.01,1.8,3.02,3.02,6.04,6.04,9.05,9.06.46.46,1.04.87.94,1.66-6.4-2.43-12.6-1.91-18.62,1.25-.21-.61-.72-.97-1.15-1.4-3.1-3.11-6.2-6.22-9.31-9.31-.52-.52-1.03-1.03-.95-1.84,1.48-.83,3.13-1.17,4.77-1.2,4.75-.09,9.51-.02,14.26-.01Z"/>
      <path class="cls-4" d="m42.71,85.63c.77-.1,1.21.41,1.69.89,6.35,6.36,12.71,12.72,19.07,19.08.47.47.99.92.89,1.69-4.2.09-8.44.5-12.38-1.55-5.86-3.04-9.04-7.83-9.3-14.45-.08-1.88.02-3.77.04-5.65Z"/>
      <path class="cls-7" d="m96.38,74.63c.88.11,1.48.68,2.07,1.27,2.46,2.47,4.92,4.94,7.39,7.39.42.42.75.99,1.46,1.01,0,3.82.47,7.66-.66,11.41-.21.68-.55,1.32-.83,1.98-.94-.11-1.6-.66-2.24-1.31-3-3.02-6.02-6.03-9.04-9.04-.42-.42-.75-.99-1.44-1.04,2.12-3.6,3.22-7.49,3.29-11.68Z"/>
      <path class="cls-9" d="m42.72,58.62c.01-4.13,1.46-7.68,4.33-10.65,3.66,3.61,7.32,7.23,10.99,10.84.5.49.9,1.16,1.73,1.18-2.34,2.67-4.23,5.6-5.28,9.02-.75-.02-1.17-.58-1.63-1.04-2.78-2.78-5.56-5.56-8.34-8.34-.5-.5-.95-1.12-1.8-1.01Z"/>
      <path class="cls-9" d="m102,102.95c-2.77,2.72-6.12,4.11-9.98,4.32-.04-.69-.6-1.03-1.01-1.45-2.88-2.89-5.76-5.77-8.64-8.66-.5-.5-1.13-.93-1.01-1.78,3.06-1.04,5.75-2.71,8.22-4.77,4.35,3.91,8.39,8.12,12.43,12.35Z"/>
      <path class="cls-13" d="m81.35,95.37c-.12.85.51,1.28,1.01,1.78,2.88,2.89,5.77,5.77,8.64,8.66.42.42.98.76,1.01,1.45-4.45,0-8.89.02-13.34.02.12-.85-.5-1.3-1-1.8-2.9-2.9-5.79-5.79-8.68-8.69-.46-.46-1.07-.84-.95-1.64.44.05.74.38,1.2.48,4.06.87,8.09.9,12.1-.25Z"/>
      <path class="cls-13" d="m42.72,58.62c.85-.11,1.29.51,1.8,1.01,2.78,2.78,5.56,5.56,8.34,8.34.47.47.88,1.02,1.63,1.04-.97,3.86-1.06,7.73-.12,11.62-.71.02-1.06-.54-1.48-.97-2.8-2.78-5.58-5.58-8.37-8.37-.51-.51-.95-1.12-1.81-1,0-3.89,0-7.78.01-11.68Z"/>
      <path class="cls-14" d="m59.76,60c-.83-.02-1.23-.69-1.73-1.18-3.67-3.61-7.33-7.22-10.99-10.84,1.58-1.94,3.57-3.29,5.93-4.1-.08.82.42,1.32.95,1.84,3.11,3.1,6.21,6.2,9.31,9.31.43.43.94.79,1.15,1.4-1.54,1.19-3.08,2.37-4.63,3.56Z"/>
      <path class="cls-14" d="m102,102.95c-4.03-4.22-8.08-8.44-12.43-12.35,1.18-1.43,2.35-2.86,3.53-4.29.69.05,1.02.62,1.44,1.04,3.02,3,6.03,6.02,9.04,9.04.64.64,1.3,1.2,2.24,1.31-.84,2.07-2.07,3.85-3.82,5.25Z"/>
      <path class="cls-5" d="m92.01,42.7c8.3.55,14.71,6.96,15.26,15.27-1-.13-1.57-.89-2.27-1.49-1.35-1.15-2.24-2.82-3.99-3.51-.28-2.97-1.35-3.99-4.33-4.08.11-.93-.67-1.32-1.15-1.9-1.17-1.43-3.01-2.31-3.52-4.28Z"/>
      <path class="cls-8" d="m101.01,52.96c1.75.69,2.64,2.36,3.99,3.51.7.6,1.27,1.36,2.27,1.49,0,2.33.02,4.67.03,7-.56,0-.87-.42-1.22-.76-2.33-2.33-4.66-4.66-6.99-6.99-.35-.35-.75-.66-.75-1.22,1.32-.63,2.25-1.6,2.67-3.03Z"/>
      <path class="cls-8" d="m92.01,42.7c.51,1.97,2.35,2.85,3.52,4.28.47.58,1.26.97,1.15,1.9-1.5.37-2.37,1.4-2.92,2.78-3.05-2.58-5.7-5.57-8.54-8.37-.14-.14-.14-.41-.21-.62,2.33.01,4.67.02,7,.03Z"/>
      <path class="cls-2" d="m93.1,86.31c-1.18,1.43-2.35,2.86-3.53,4.29-2.47,2.06-5.16,3.73-8.22,4.77-4.01,1.15-8.04,1.13-12.1.25-.45-.1-.76-.43-1.2-.48-6.9-2.63-11.37-7.56-13.69-14.51-.94-3.88-.85-7.75.12-11.62,1.05-3.42,2.94-6.36,5.28-9.02,1.54-1.19,3.08-2.37,4.63-3.56,6.02-3.17,12.22-3.69,18.62-1.25,8.33,3.82,12.75,10.33,13.37,19.45-.07,4.18-1.17,8.07-3.29,11.68Zm-21.43-23.71c-2.44.49-4.43,1.72-6.03,3.62-2.76,2.83-3.89,6.2-3.39,10.12.41,5.94,5.46,10.99,11.39,11.39,3.71.48,6.95-.51,9.72-3.03,2.09-1.66,3.48-3.75,4.01-6.39,1.45-4.81.17-9-3.27-12.44-3.44-3.44-7.63-4.71-12.44-3.27Z"/>
      <path class="cls-2" d="m93.76,51.65c.55-1.37,1.42-2.4,2.92-2.78,2.98.1,4.05,1.11,4.33,4.08-.42,1.42-1.35,2.4-2.67,3.03-3.31.03-4.58-1.17-4.59-4.33Z"/>
      <path class="cls-9" d="m62.25,76.34c-.5-3.92.62-7.3,3.39-10.12.39.46.75.95,1.17,1.38,5.12,5.13,10.25,10.25,15.36,15.38.49.5,1.17.89,1.19,1.72-2.77,2.51-6.02,3.51-9.72,3.03.08-.57-.29-.91-.65-1.27-3.16-3.16-6.32-6.32-9.47-9.48-.35-.35-.69-.73-1.27-.64Z"/>
      <path class="cls-14" d="m83.37,84.7c-.03-.83-.7-1.22-1.19-1.72-5.11-5.13-10.24-10.25-15.36-15.38-.42-.43-.78-.92-1.17-1.38,1.59-1.9,3.59-3.13,6.03-3.62,0,.63.46.98.84,1.37,4.5,4.5,9,9,13.5,13.5.39.39.73.85,1.36.85-.53,2.64-1.92,4.73-4.01,6.39Z"/>
      <path class="cls-7" d="m87.37,78.31c-.63,0-.98-.46-1.36-.85-4.5-4.5-9-9-13.5-13.5-.39-.39-.85-.73-.84-1.37,4.81-1.44,9-.17,12.44,3.27,3.44,3.44,4.72,7.63,3.27,12.44Z"/>
      <path class="cls-13" d="m62.25,76.34c.57-.08.91.29,1.27.64,3.16,3.16,6.31,6.32,9.47,9.48.35.35.73.69.65,1.27-5.93-.39-10.98-5.44-11.39-11.39Z"/>
    </g>
  </g>
</svg>