<?xml version="1.0" encoding="UTF-8"?>
<svg id="_레이어_2" data-name="레이어 2" xmlns="http://www.w3.org/2000/svg" viewBox="0 0 150 150">
  <defs>
    <style>
      .cls-1 {
        fill: #ff9d00;
      }

      .cls-2 {
        fill: #949398;
      }
    </style>
  </defs>
  <g id="_레이어_1-2" data-name="레이어 1">
    <g>
      <path class="cls-2" d="m14.91,119.56c-2.25-2.4-3.81-5.27-5.41-8.1-4.21-7.46-6.97-15.44-8.4-23.87-.92-5.45-1.35-10.98-.96-16.5.67-9.57,2.74-18.81,6.92-27.53,3.04-6.33,6.71-12.2,11.32-17.5,6.34-7.28,13.76-13.11,22.32-17.6,6.96-3.64,14.3-6.04,21.99-7.38,5.34-.93,10.77-1.31,16.18-.95,9.36.62,18.39,2.65,26.97,6.6,6.61,3.04,12.66,6.9,18.15,11.68,7.28,6.34,13.12,13.76,17.57,22.34,3.62,6.97,6.08,14.3,7.37,22.01.88,5.25,1.29,10.58.95,15.9-.62,9.68-2.68,19.03-6.89,27.84-2.08,4.36-4.37,8.59-7.29,12.45-.17.23-.43.4-.64.6-1.39-1.65-2.71-3.37-4.18-4.94-18.93-20.09-42.05-28.22-69.29-23.74-14.71,2.42-27.43,9.15-38.29,19.41-3.04,2.87-5.72,6.06-8.38,9.27Zm60.01-39.62c16.02.03,29.05-12.94,29.08-28.95.03-16.04-12.94-29.11-28.91-29.12-16.04-.01-29.05,12.94-29.08,28.95-.02,16.05,12.93,29.09,28.91,29.12Z"/>
      <path class="cls-1" d="m14.91,119.56c2.66-3.21,5.34-6.39,8.38-9.27,10.86-10.25,23.58-16.99,38.29-19.41,27.25-4.48,50.36,3.65,69.29,23.74,1.48,1.57,2.79,3.29,4.18,4.94-1.14,2.21-2.85,4-4.5,5.8-11.74,12.85-26.14,21.17-43.35,23.66-29.18,4.24-53.15-5.48-71.73-28.44-.25-.31-.56-.59-.58-1.03Z"/>
      <path class="cls-1" d="m74.92,79.94c-15.98-.03-28.93-13.07-28.91-29.12.02-16,13.04-28.96,29.08-28.95,15.97.01,28.94,13.08,28.91,29.12-.03,16-13.06,28.97-29.08,28.95Z"/>
    </g>
  </g>
</svg>