<?xml version="1.0" encoding="UTF-8"?>
<svg id="_레이어_2" data-name="레이어 2" xmlns="http://www.w3.org/2000/svg" viewBox="0 0 100 100">
  <defs>
    <style>
      .cls-1 {
        fill: #fe4b26;
      }

      .cls-2 {
        fill: #d83f22;
      }

      .cls-3 {
        fill: #fed401;
      }

      .cls-4 {
        fill: #177ee5;
      }

      .cls-5 {
        fill: #13b247;
      }
    </style>
  </defs>
  <g id="_레이어_1-2" data-name="레이어 1">
    <g>
      <path class="cls-3" d="M23.61,34.76c-1.39,2.72-2.63,5.49-3.29,8.49-1.62,7.39-.65,14.43,2.89,21.12,.15,.28,.27,.58,.4,.87-5.6,3.24-11.2,6.48-16.8,9.71-1.86-2.84-3.14-5.96-4.24-9.15-1.24-3.61-1.98-7.32-2.37-11.12-.02-.21,.08-.47-.21-.59v-8.2c.24-.09,.19-.31,.2-.49,.31-3.14,.86-6.23,1.76-9.26,1.16-3.89,2.63-7.66,4.84-11.1,5.6,3.24,11.21,6.48,16.81,9.72Z"/>
      <path class="cls-1" d="M23.61,34.76c-5.6-3.24-11.21-6.48-16.81-9.72,.04-.12,.06-.25,.13-.36C15.11,11.3,26.9,3.23,42.38,.57c1.3-.22,2.63-.16,3.9-.57h3.71c0,6.51,0,13.01,0,19.52-7.16,.14-13.58,2.35-19.16,6.87-2.68,2.17-4.9,4.73-6.73,7.66-.15,.24-.33,.47-.5,.71Z"/>
      <path class="cls-2" d="M49.99,19.52c0-6.51,0-13.01,0-19.52h3.91c1.26,.4,2.59,.37,3.88,.58,9.45,1.54,17.78,5.47,25.01,11.72,1.44,1.25,1.56,3.32,.22,4.69-3.08,3.17-6.21,6.29-9.38,9.38-1.32,1.29-3.02,1.22-4.58-.04-3.59-2.9-7.64-4.85-12.11-5.94-2.28-.56-4.62-.66-6.94-.87Z"/>
      <path class="cls-4" d="M65.24,76.34c3.56-2.23,6.71-4.91,9.2-8.32,1.43-1.95,2.63-4.03,3.57-6.25,.11-.26,.3-.51,.21-.9h-1.05c-7,0-13.99,0-20.99,0-2.83,0-4.02-1.2-4.02-4.05,0-3.94,0-7.88,0-11.81,0-2.39,1.28-3.72,3.65-3.72,13.31-.01,26.62-.01,39.93,0,2.38,0,3.47,1.09,3.84,3.64,.78,5.38,.44,10.71-.74,15.99-3.15,14.11-11.18,24.68-23.48,32.11-.11,.07-.23,.11-.35,.16-.2-.33-.41-.66-.6-1-3.06-5.28-6.11-10.56-9.17-15.85Z"/>
      <path class="cls-5" d="M65.24,76.34c3.06,5.28,6.11,10.56,9.17,15.85,.2,.34,.4,.67,.6,1-2.08,1.46-4.41,2.43-6.75,3.36-22.54,8.95-48.77-.02-61.12-20.9-.13-.22-.22-.46-.33-.7,5.6-3.24,11.2-6.48,16.8-9.71,1.77,2.69,3.67,5.27,6.12,7.4,6.29,5.46,13.54,8.15,21.93,7.67,4.58-.26,8.85-1.49,12.87-3.67,.22-.12,.47-.2,.71-.29Z"/>
    </g>
  </g>
</svg>