<?xml version="1.0" encoding="UTF-8"?>
<svg id="_레이어_2" data-name="레이어 2" xmlns="http://www.w3.org/2000/svg" viewBox="0 0 184.08 150">
  <defs>
    <style>
      .cls-1 {
        fill: #019db1;
      }
    </style>
  </defs>
  <g id="_레이어_1-2" data-name="레이어 1">
    <path class="cls-1" d="m0,133.12c20.57,1.83,38.81-3.15,55.36-15.57-17.3-1.56-28.81-10.27-35.26-26.41,5.77.7,11.11.79,16.71-.69-22.68-5.8-30.62-25.98-29.62-37.51,5.1,2.58,10.39,4.29,16.7,4.44-9.48-6.9-14.92-15.74-16.33-26.81-1.06-8.27.6-16.12,4.87-23.56,20.47,24.09,46.32,37.39,77.69,39.49-.13-3.8-.46-7.39-.35-10.97.45-15.44,12.37-30.28,27.35-34.1,14.04-3.58,26.38-.42,36.93,9.54.81.76,1.48.87,2.55.63,7.31-1.65,14.27-4.21,20.8-7.89.41-.23.85-.42,1.56-.76-1.27,4.44-3.25,8.27-6.09,11.51-2.82,3.21-6.06,6.05-9.05,8.98,6.73-.8,13.39-2.8,19.87-5.47.14.15.27.3.41.45-3.04,3.56-5.93,7.27-9.17,10.64-2.62,2.71-5.71,4.96-8.5,7.51-.56.52-1.02,1.47-1.02,2.23-.03,39-15.39,70.34-47.15,93.19-13.45,9.67-28.81,14.89-45.24,17.02-15.47,2.01-30.7,1-45.69-3.32-9.39-2.71-18.24-6.71-26.53-11.91-.19-.12-.34-.29-.79-.66Z"/>
  </g>
</svg>