<?xml version="1.0" encoding="UTF-8"?>
<svg id="_레이어_2" data-name="레이어 2" xmlns="http://www.w3.org/2000/svg" viewBox="0 0 480 421.77">
  <defs>
    <style>
      .cls-1 {
        fill: #949398;
      }

      .cls-2 {
        fill: #f5df4e;
      }

      .cls-3 {
        fill: #eccf76;
      }

      .cls-4 {
        fill: #019db1;
      }

      .cls-5 {
        fill: #ea6;
      }

      .cls-6 {
        fill: #d25c78;
      }

      .cls-7 {
        fill: #505860;
      }

      .cls-8 {
        fill: #fefefe;
      }
    </style>
  </defs>
  <g id="_레이어_1-2" data-name="레이어 1">
    <g>
      <path class="cls-2" d="M0,253.93c0-72.49,0-144.99,0-217.48,1.05-.68,1.04-1.88,1.34-2.89C7.72,12.27,23.79,.05,46.01,.03,155.61-.02,265.22,0,374.83,.05c6.88,0,13.74,.82,20.06,3.86,13.46,6.46,22.41,16.55,24.98,31.65-2.15,.29-4.29,.74-6.45,.84-14.51,.72-26.7,6.57-36.89,16.74-17.1,17.05-34.15,34.15-51.24,51.2-1.29,1.29-2.33,2.99-4.38,3.31-.98-13.62-10.11-22.9-24.03-24.44-.24-1.54-.42-3.09-.73-4.61-2.01-10.1-11.28-16.81-22.09-16-9.61,.72-17.88,9.23-18.24,18.76-.18,4.78,2.16,8.01,6.13,8.47,3.95,.45,6.91-2.13,7.88-6.89,.95-4.64,3.28-6.81,7.09-6.25,4.14,.61,5.75,3.3,5.38,7.33-10.46,1.77-19.19,10.05-20.65,19.57-1.36,8.9,4.3,18.14,14.22,22.95,7.68,3.73,15.78,4.27,24.08,2.74-12.31,12.46-24.63,24.9-36.91,37.38-1.28,1.3-2.96,2.32-3.41,4.3-2.5,.03-5,.1-7.49,.1-53.57,0-107.14,0-160.71,.01-1.87,0-3.77-.05-5.6,.25-3.6,.59-5.43,3.04-5.57,6.52-.14,3.29,1.49,5.83,4.73,6.71,2.07,.56,4.32,.58,6.49,.58,48.73,.03,97.46,.02,146.19,.03,2.02,0,4.05,.14,6.07,.22-4.5,5.78-10.14,10.45-15.17,15.72-8.89,9.31-18.55,17.86-27.02,27.59-2.02,.1-4.04,.27-6.06,.27-23.54,.02-47.08,0-70.62,.03-1.71,0-3.46-.02-5.11,.36-3.47,.8-5.34,3.2-5.33,6.72,0,3.52,1.87,5.95,5.36,6.69,1.95,.42,4.02,.4,6.04,.41,20.26,.11,40.52,.18,60.78,.26-5.1,7.1-9.82,14.38-13.31,22.48-5.74,13.34-7.46,27.61-10.13,41.67-1.68,8.86-4.05,17.72-4.52,26.66-.8,15.42,4.82,28.67,16.52,39.11,11.65,10.41,25.24,14.6,40.62,12.18,12.6-1.98,25.05-4.86,37.65-6.8,21.66-3.33,40.41-12.24,55.94-27.79,35.77-35.79,71.55-71.57,107.34-107.34,1.32-1.32,2.78-2.49,4.17-3.73,.01,47.02,.04,94.04,0,141.06,0,4.73-1.24,9.28-3.2,13.58-8.54,18.77-23.67,27.07-43.74,27.09-64.98,.06-129.96,.03-194.94,.02-4.99,0-9.99-.04-14.98-.07-.94-2.58-3.52-2.31-5.44-2.97-19.42-6.67-32.95-25.46-32.96-45.97,0-14.2,.06-28.4-.02-42.6-.1-18.74-15.3-33.89-33.89-33.9-14.2,0-28.39,.05-42.59-.02-19.18-.1-37.84-12.64-45.05-30.32C2.48,261.92,1.34,257.88,0,253.93ZM150.68,89.64c5.94-5,3.32-11.8,3.52-17.89,.14-4.37-3.09-7.15-6.97-7.16-3.89,0-6.73,2.75-6.97,7.18-.22,4.02-.08,8.06-.11,12.08-11-2.8-21.34-1.51-30.69,5.23-10.65,7.67-12.41,21.08-4.13,30.63,11.11,12.81,34.59,13.88,46.93,2.15,10.39-9.88,9.72-23.34-1.58-32.22Zm60.36,8.08c7.43,.07,14.72-2.91,20.64-9.07,3.31-3.45,3.46-7.42,.61-10.39-2.88-3-6.71-2.89-10.38,.28-7.99,6.93-14.66,6.91-22.77-.05-3.66-3.14-7.49-3.2-10.36-.15-2.86,3.04-2.62,6.85,.78,10.37,5.56,5.76,12.35,8.78,21.49,9.01Z"/>
      <path class="cls-5" d="M164,421.54c-21.17,.1-42.47,1.59-63.17-4.41-52.34-15.17-84.89-49.42-97.96-102.25C1.65,309.94,.95,304.87,0,299.86c0-15.31,0-30.62,0-45.93,1.34,3.95,2.48,7.99,4.06,11.85,7.21,17.68,25.87,30.22,45.05,30.32,14.2,.07,28.39,.01,42.59,.02,18.59,.01,33.79,15.16,33.89,33.9,.08,14.2,.01,28.4,.02,42.6,0,20.51,13.53,39.29,32.96,45.97,1.93,.66,4.51,.39,5.44,2.97Z"/>
      <path class="cls-3" d="M421.2,198.31c-.11,13.85-.22,27.7-.33,41.55-1.39,1.24-2.85,2.41-4.17,3.73-35.79,35.77-71.57,71.55-107.34,107.34-15.53,15.54-34.28,24.45-55.94,27.79-12.6,1.94-25.06,4.82-37.65,6.8-15.37,2.42-28.96-1.77-40.62-12.18-11.69-10.44-17.32-23.69-16.52-39.11,.47-8.94,2.83-17.8,4.52-26.66,2.67-14.05,4.39-28.33,10.13-41.67,3.48-8.09,8.2-15.38,13.31-22.48,13.22,.01,26.45,.03,39.67,.04-3.56,4.68-8.75,7.87-11.85,12.97-12.94,12.06-18.34,27.58-20.41,44.61-1.97,10.4-4.02,20.79-5.89,31.22-2.58,14.36,8.12,26.36,22.69,24.66,11.1-1.3,22.12-3.48,33.01-6.18,17.31-1.67,32.59-7.82,45.02-20.31,1.19-.99,2.47-1.9,3.56-2.99,37.92-37.95,75.85-75.88,113.7-113.91,5.05-5.07,9.64-10.6,15.15-15.22Z"/>
      <path class="cls-3" d="M419.87,35.55c2.23,7.27,.88,14.74,1.23,22.11,.11,2.32,.05,4.64,.07,6.96-8.65,.1-16.57,2.19-23.27,8.04-7.75,6.77-14.69,14.36-21.99,21.58-3.08,3.05-6.65,5.68-8.8,9.59-1.87,.65-2.94,2.27-4.25,3.57-21.47,21.3-42.92,42.62-64.37,63.94-12.96-.13-25.91-.27-38.87-.4,.45-1.98,2.13-3,3.41-4.3,12.29-12.48,24.6-24.93,36.91-37.38,1.72-.69,3.47-1.32,5.16-2.09,8.52-3.87,14.74-9.63,15.8-19.54,2.05-.31,3.09-2.02,4.38-3.31,17.09-17.05,34.14-34.15,51.24-51.2,10.2-10.17,22.38-16.02,36.89-16.74,2.16-.11,4.3-.55,6.45-.84Z"/>
      <path class="cls-1" d="M259.61,170.96c12.96,.13,25.91,.27,38.87,.4-4.53,4.54-9.06,9.09-13.6,13.63-13.72,.21-27.46-.52-41.17,.39-2.02-.08-4.05-.22-6.07-.22-48.73-.01-97.46,0-146.19-.03-2.17,0-4.42-.02-6.49-.58-3.25-.88-4.87-3.41-4.73-6.71,.14-3.48,1.97-5.93,5.57-6.52,1.83-.3,3.73-.25,5.6-.25,53.57-.01,107.14,0,160.71-.01,2.5,0,5-.07,7.49-.1Z"/>
      <path class="cls-6" d="M150.68,89.64c11.31,8.88,11.97,22.34,1.58,32.22-12.34,11.74-35.81,10.66-46.93-2.15-8.28-9.55-6.52-22.96,4.13-30.63,9.35-6.73,19.68-8.03,30.68-5.23,1.97,5.73,3.66,6.65,10.53,5.79Z"/>
      <path class="cls-6" d="M320.9,107.65c-1.06,9.91-7.28,15.67-15.8,19.54-1.69,.77-3.44,1.39-5.16,2.09-8.3,1.53-16.4,.99-24.08-2.74-9.92-4.81-15.58-14.05-14.22-22.95,1.46-9.52,10.2-17.8,20.65-19.57,1.61,3.33,3.61,6.17,7.89,5.81,4.03-.34,5.63-3.23,6.69-6.62,13.92,1.54,23.04,10.82,24.03,24.44Z"/>
      <path class="cls-3" d="M243.71,185.38c13.72-.91,27.45-.17,41.17-.39-14.7,14.66-29.4,29.33-44.1,43.99-13.09-.1-26.17-.2-39.26-.3,8.47-9.72,18.13-18.28,27.02-27.59,5.03-5.27,10.67-9.94,15.17-15.72Z"/>
      <path class="cls-1" d="M201.52,228.68c13.09,.1,26.17,.2,39.26,.3-4.61,5.07-9.38,9.96-14.53,14.48-13.22-.01-26.45-.03-39.67-.04-20.26-.08-40.52-.15-60.78-.26-2.02-.01-4.09,0-6.04-.41-3.48-.75-5.35-3.17-5.36-6.69,0-3.52,1.87-5.92,5.33-6.72,1.64-.38,3.4-.35,5.11-.36,23.54-.02,47.08,0,70.62-.03,2.02,0,4.04-.18,6.06-.27Z"/>
      <path class="cls-1" d="M296.87,83.21c-1.06,3.39-2.66,6.28-6.69,6.62-4.28,.36-6.29-2.48-7.89-5.81,.37-4.04-1.24-6.72-5.38-7.33-3.81-.56-6.14,1.6-7.09,6.25-.97,4.76-3.92,7.34-7.88,6.89-3.97-.45-6.31-3.69-6.13-8.47,.36-9.53,8.63-18.04,18.24-18.76,10.81-.81,20.08,5.9,22.09,16,.3,1.53,.49,3.08,.73,4.61Z"/>
      <path class="cls-1" d="M211.05,97.72c-9.13-.23-15.93-3.25-21.49-9.01-3.4-3.52-3.64-7.33-.78-10.37,2.87-3.05,6.7-3,10.36,.15,8.11,6.97,14.78,6.98,22.77,.05,3.66-3.18,7.49-3.28,10.38-.28,2.86,2.97,2.7,6.94-.61,10.39-5.91,6.16-13.21,9.14-20.64,9.07Z"/>
      <path class="cls-1" d="M150.68,89.64c-6.87,.86-8.55-.06-10.53-5.79,.02-4.03-.11-8.06,.11-12.08,.24-4.43,3.08-7.19,6.97-7.18,3.88,0,7.11,2.79,6.97,7.16-.19,6.09,2.43,12.89-3.52,17.89Z"/>
      <path class="cls-4" d="M226.25,243.46c5.15-4.52,9.92-9.42,14.53-14.48,14.7-14.66,29.4-29.33,44.1-43.99,4.53-4.54,9.06-9.09,13.6-13.63,21.45-21.32,42.9-42.64,64.37-63.94,1.31-1.3,2.39-2.92,4.25-3.57,.82,.93,1.59,1.92,2.47,2.79,23.68,23.64,47.36,47.28,71.05,70.91-1.89,4.21-5.82,6.61-8.79,9.85-3.43,3.74-7.08,7.28-10.63,10.91-5.5,4.62-10.09,10.15-15.14,15.22-37.84,38.03-75.77,75.96-113.7,113.91-1.09,1.09-2.37,2-3.56,2.99-5.14-1.82-10.2-3.92-15.44-5.4-8.61-2.42-14.34-7.68-16.19-16.37-2.6-12.19-10.28-18.72-21.95-21.38-.91-.21-1.77-.58-2.66-.9-5.83-2.07-9.61-6.06-11.6-11.94-2.05-6.05-4.36-12.01-6.56-18.01,3.11-5.09,8.29-8.28,11.85-12.97Zm67.25,15.03c2.55-.39,4.68-1.61,6.49-3.41,8.72-8.7,17.46-17.38,26.12-26.15,3.61-3.66,3.96-8.85,1.01-11.67-2.95-2.81-7.31-2.26-11.15,1.54-5.99,5.92-11.92,11.9-17.87,17.86-3.19,3.2-6.47,6.33-9.52,9.66-2.2,2.4-2.54,5.4-1.14,8.29,1.15,2.37,3.37,3.59,6.06,3.88Z"/>
      <path class="cls-6" d="M440.62,177.55c-23.69-23.63-47.37-47.27-71.05-70.91-.88-.88-1.65-1.86-2.47-2.79,2.14-3.91,5.72-6.55,8.79-9.59,7.3-7.22,14.23-14.82,21.99-21.58,6.7-5.85,14.63-7.94,23.27-8.04,10.59,1.7,18.23,8.02,25.31,15.57,7.67,8.18,15.85,15.88,23.73,23.87,13.1,13.29,13.07,31.73-.07,45.03-8.54,8.65-17.17,17.21-25.78,25.79-1.09,1.08-2.02,2.42-3.73,2.66Z"/>
      <path class="cls-8" d="M214.4,256.43c2.2,6,4.51,11.96,6.56,18.01,1.99,5.88,5.77,9.87,11.6,11.94,.88,.31,1.75,.69,2.66,.9,11.67,2.66,19.36,9.19,21.95,21.38,1.85,8.68,7.58,13.95,16.19,16.37,5.24,1.47,10.3,3.57,15.44,5.4-12.42,12.5-27.71,18.65-45.02,20.31-5.23-5.32-10.4-10.7-15.68-15.96-11.34-11.28-22.74-22.5-34.11-33.74,2.07-17.04,7.47-32.55,20.41-44.61Z"/>
      <path class="cls-7" d="M193.99,301.04c11.37,11.24,22.77,22.46,34.11,33.74,5.29,5.26,10.46,10.63,15.68,15.96-10.88,2.7-21.91,4.88-33,6.18-14.56,1.7-25.26-10.3-22.69-24.66,1.87-10.42,3.92-20.81,5.89-31.22Z"/>
      <path class="cls-8" d="M293.5,258.5c-2.7-.28-4.91-1.5-6.06-3.88-1.4-2.88-1.05-5.89,1.14-8.29,3.05-3.33,6.33-6.46,9.52-9.66,5.95-5.96,11.88-11.94,17.87-17.86,3.84-3.8,8.2-4.35,11.15-1.54,2.96,2.82,2.61,8.01-1.01,11.67-8.66,8.76-17.41,17.44-26.12,26.15-1.81,1.81-3.94,3.03-6.49,3.41Z"/>
    </g>
  </g>
</svg>